HIERARCHY
ROOT Hips
{
 OFFSET 0.000000 0.000000 0.000000
 CHANNELS 6 Xposition Yposition Zposition Yrotation Xrotation Zrotation
 JOINT Chest
 {
  OFFSET 0.000000 9.585900 0.002600
  CHANNELS 3 Yrotation Xrotation Zrotation
  JOINT Chest2
  {
   OFFSET 0.000000 9.601200 -0.005300
   CHANNELS 3 Yrotation Xrotation Zrotation
   JOINT Chest3
   {
    OFFSET 0.000000 9.561800 0.000000
    CHANNELS 3 Yrotation Xrotation Zrotation
    JOINT Chest4
    {
     OFFSET 0.000000 9.552100 0.000000
     CHANNELS 3 Yrotation Xrotation Zrotation
     JOINT Neck
     {
      OFFSET 0.000000 14.453000 0.000000
      CHANNELS 3 Yrotation Xrotation Zrotation
      JOINT Head
      {
       OFFSET 0.000000 8.936500 -0.011300
       CHANNELS 3 Yrotation Xrotation Zrotation
       End Site
       {
        OFFSET 0.000000 17.073600 -0.006000
       }
      }
     }
     JOINT RightCollar
     {
      OFFSET -2.921100 9.558500 0.000000
      CHANNELS 3 Yrotation Xrotation Zrotation
      JOINT RightShoulder
      {
       OFFSET -13.519700 0.000000 0.000000
       CHANNELS 3 Yrotation Xrotation Zrotation
       JOINT RightElbow
       {
        OFFSET 0.000000 -29.696600 0.000000
        CHANNELS 3 Yrotation Xrotation Zrotation
        JOINT RightWrist
        {
         OFFSET 0.000000 -24.004700 0.000000
         CHANNELS 3 Yrotation Xrotation Zrotation
         End Site
         {
          OFFSET 0.000000 -17.728500 0.000000
         }
        }
       }
      }
     }
     JOINT LeftCollar
     {
      OFFSET 2.921100 9.558500 0.000000
      CHANNELS 3 Yrotation Xrotation Zrotation
      JOINT LeftShoulder
      {
       OFFSET 13.519700 0.000000 0.000000
       CHANNELS 3 Yrotation Xrotation Zrotation
       JOINT LeftElbow
       {
        OFFSET 0.000000 -29.696600 0.000000
        CHANNELS 3 Yrotation Xrotation Zrotation
        JOINT LeftWrist
        {
         OFFSET 0.000000 -24.004700 0.000000
         CHANNELS 3 Yrotation Xrotation Zrotation
         End Site
         {
          OFFSET 0.000000 -17.728500 0.000000
         }
        }
       }
      }
     }
    }
   }
  }
 }
 JOINT RightHip
 {
  OFFSET -7.771700 -0.012900 -0.001300
  CHANNELS 3 Yrotation Xrotation Zrotation
  JOINT RightKnee
  {
   OFFSET 0.000000 -40.869800 0.001200
   CHANNELS 3 Yrotation Xrotation Zrotation
   JOINT RightAnkle
   {
    OFFSET 0.000000 -39.717900 0.002100
    CHANNELS 3 Yrotation Xrotation Zrotation
    JOINT RightToe
    {
     OFFSET 0.000000 -4.965400 11.033500
     CHANNELS 3 Yrotation Xrotation Zrotation
     End Site
     {
      OFFSET 0.000000 -1.423100 5.872300
     }
    }
   }
  }
 }
 JOINT LeftHip
 {
  OFFSET 7.771700 -0.012900 -0.001300
  CHANNELS 3 Yrotation Xrotation Zrotation
  JOINT LeftKnee
  {
   OFFSET 0.000000 -40.869800 0.001200
   CHANNELS 3 Yrotation Xrotation Zrotation
   JOINT LeftAnkle
   {
    OFFSET 0.000000 -39.717900 0.002100
    CHANNELS 3 Yrotation Xrotation Zrotation
    JOINT LeftToe
    {
     OFFSET 0.000000 -4.965400 11.033500
     CHANNELS 3 Yrotation Xrotation Zrotation
     End Site
     {
      OFFSET 0.000000 -1.423100 5.872300
     }
    }
   }
  }
 }
}
MOTION
Frames: 8
Frame Time: 0.008333
0.000000 85.388000 0.000000 0.000000 -5.767877 0.000000 0.000000 11.653817 0.000000 0.000000 -5.885947 0.000000 0.000000 -0.000000 0.000000 0.000000 -0.000000 0.000000 0.000000 12.528835 0.000000 0.000000 0.711642 0.000000 0.000000 -0.000000 0.000000 0.000000 0.000000 -90.000000 0.000000 -2.309062 0.000000 0.000000 2.309062 0.000000 0.000000 -0.000000 0.000000 0.000000 -0.000000 90.000000 0.000000 -2.309062 0.000000 0.000000 2.309062 0.000000 0.000000 8.520406 0.000000 0.000000 1.905762 0.000000 -0.000000 -4.658285 0.000000 0.000000 -0.000000 0.000000 0.000000 8.520406 0.000000 0.000000 1.905762 0.000000 -0.000000 -4.658285 0.000000 0.000000 -0.000000 0.000000
-124.323921 51.700716 -51.694557 176.957198 -22.322293 1.937785 -8.672651 10.925120 -0.525496 -0.738584 0.929668 0.095094 -1.257046 1.606160 0.165091 -7.791174 9.919981 0.429841 -7.979006 19.828433 -2.980867 -7.986560 -4.444105 -1.405107 5.622460 17.316434 8.721129 15.078440 -7.346610 -33.245523 162.520865 -52.969782 156.956251 -5.437221 2.410853 -16.167453 -8.900417 11.444860 -18.097231 -68.421056 -6.779476 50.543301 114.355335 -47.605121 -88.433539 23.913805 -16.260441 -6.012092 -2.411724 -60.602469 0.051746 -100.304655 79.257359 -109.336392 -4.929236 -11.503801 11.094314 0.422786 -1.391695 0.201372 15.697045 -57.053459 -12.227228 24.106527 84.592476 29.253715 -3.890382 -12.300872 2.017905 0.248425 0.588283 0.118048
-124.323510 51.699393 -51.696456 176.964526 -22.324427 1.942113 -8.682176 10.934522 -0.529379 -0.746311 0.967077 0.108393 -1.250447 1.565482 0.150577 -7.822476 9.989838 0.430601 -8.001950 19.714759 -2.973222 -8.033174 -4.530846 -1.389994 5.650881 17.246523 8.702602 15.107631 -7.258291 -33.223338 162.184035 -52.866305 157.295692 -5.398837 2.643366 -15.865367 -8.875789 11.393878 -18.108612 -68.439043 -6.727887 50.446762 114.672080 -47.620170 -88.702520 23.877729 -16.127068 -5.983996 -2.400354 -60.601787 0.042135 -100.317438 79.246633 -109.354589 -4.932350 -11.508919 11.094276 0.428085 -1.385665 0.208425 15.704848 -57.050754 -12.227536 24.006620 84.600654 29.140167 -3.891515 -12.302662 2.030328 0.243015 0.588905 0.118168
-124.322885 51.697171 -51.697096 176.971603 -22.318146 1.942339 -8.692463 10.952142 -0.522626 -0.748118 0.969672 0.110044 -1.253460 1.569056 0.148833 -7.822873 9.979836 0.428429 -8.061456 19.654189 -2.968086 -8.091092 -4.623994 -1.373309 5.655406 17.243168 8.683703 15.130921 -7.166297 -33.184199 161.826683 -52.722342 157.636634 -5.369832 2.875802 -15.486024 -8.886530 11.398500 -18.124500 -68.479369 -6.669912 50.341009 115.037940 -47.666152 -88.999987 23.840453 -15.985683 -5.932022 -2.396432 -60.611585 0.045504 -100.326090 79.232521 -109.365177 -4.953169 -11.507755 11.090361 0.431801 -1.379246 0.210541 15.715898 -57.059534 -12.231097 23.840919 84.613029 28.965501 -3.883995 -12.299330 2.043783 0.238518 0.585574 0.115561
-124.323902 51.694773 -51.697855 176.994384 -22.313308 1.942577 -8.721371 10.989254 -0.512314 -0.749533 0.955431 0.101584 -1.261731 1.596034 0.157818 -7.816804 9.942837 0.420527 -8.134313 19.591915 -2.965072 -8.157941 -4.724479 -1.354798 5.639609 17.267760 8.659223 15.143156 -7.134016 -33.153118 161.523911 -52.565450 157.962437 -5.344726 3.103568 -15.034778 -8.899279 11.409075 -18.145320 -68.511926 -6.624095 50.228792 115.423628 -47.737020 -89.340672 23.802342 -15.841542 -5.884533 -2.381177 -60.618717 0.037183 -100.329883 79.208200 -109.378726 -4.982000 -11.505398 11.102243 0.451290 -1.374743 0.216827 15.721917 -57.066229 -12.241565 23.703625 84.620247 28.811178 -3.882482 -12.292030 2.066329 0.229676 0.581585 0.110671
-124.326727 51.692254 -51.698515 177.004760 -22.308241 1.953684 -8.741052 11.017929 -0.514033 -0.751107 0.952450 0.099366 -1.256463 1.571083 0.149543 -7.863040 10.045206 0.427244 -8.176151 19.439713 -2.961575 -8.230444 -4.830787 -1.337020 5.666902 17.194234 8.627866 15.115669 -7.103897 -33.125753 161.271654 -52.376355 158.267613 -5.325803 3.323934 -14.521158 -8.900732 11.385080 -18.170306 -68.508714 -6.618671 50.160933 115.822341 -47.825479 -89.731092 23.759102 -15.693885 -5.961683 -2.354796 -60.626420 0.011548 -100.339798 79.199027 -109.402791 -4.976800 -11.509875 11.105695 0.441889 -1.368300 0.221985 15.751188 -57.067402 -12.274049 23.644846 84.622844 28.748591 -3.888859 -12.289101 2.076533 0.232078 0.580261 0.110114
-124.330603 51.689363 -51.698105 177.014117 -22.297449 1.966435 -8.755007 11.020004 -0.523008 -0.754919 0.963285 0.103237 -1.263735 1.585285 0.150078 -7.865200 10.032807 0.425762 -8.262019 19.370162 -2.959463 -8.305637 -4.939159 -1.323229 5.667780 17.202797 8.618679 15.058310 -7.088823 -33.094743 161.064063 -52.160846 158.556103 -5.315470 3.525416 -13.954329 -8.906154 11.407933 -18.179448 -68.490145 -6.615564 50.033815 116.259337 -47.935948 -90.177719 23.660866 -15.507988 -6.025331 -2.331613 -60.639271 -0.017424 -100.352735 79.203232 -109.431471 -4.970323 -11.518443 11.120596 0.423576 -1.359062 0.216467 15.791518 -57.072548 -12.315995 23.583697 84.622780 28.685679 -3.898475 -12.286925 2.087977 0.238559 0.581149 0.110512
-124.336044 51.686000 -51.696040 177.016121 -22.276534 1.986413 -8.762260 11.012000 -0.533733 -0.771095 0.983563 0.109638 -1.287333 1.633924 0.165466 -7.842063 9.973533 0.412320 -8.356420 19.301743 -2.960708 -8.381768 -5.049111 -1.314229 5.664304 17.211090 8.611869 14.984036 -7.082186 -33.064031 160.887583 -51.925992 158.832918 -5.320560 3.691861 -13.339853 -8.910313 11.437825 -18.184279 -68.456471 -6.613126 49.894502 116.762160 -48.074355 -90.688141 23.516278 -15.256174 -6.091762 -2.277952 -60.664379 -0.053636 -100.360100 79.211646 -109.468299 -4.964513 -11.511093 11.144898 0.387230 -1.359867 0.218441 15.837062 -57.086993 -12.368848 23.585671 84.619277 28.684271 -3.897384 -12.282287 2.092781 0.237017 0.580164 0.110588
